<svg width="31" height="31" viewBox="0 0 31 31" fill="none" xmlns="http://www.w3.org/2000/svg">
<path d="M15.1215 0.0419312C6.77121 0.0419312 0 6.92733 0 15.4216C0 22.2168 4.33276 27.9818 10.341 30.0155C11.0967 30.1579 11.3742 29.6819 11.3742 29.2756C11.3742 28.9089 11.3601 27.6974 11.3536 26.4122C7.14682 27.3426 6.25913 24.5976 6.25913 24.5976C5.57127 22.8199 4.58016 22.3472 4.58016 22.3472C3.20819 21.3926 4.68358 21.4123 4.68358 21.4123C6.20204 21.5205 7.00158 22.9972 7.00158 22.9972C8.35026 25.3484 10.5391 24.6687 11.402 24.2757C11.5377 23.2819 11.9296 22.6029 12.362 22.2191C9.00332 21.8302 5.47261 20.5114 5.47261 14.6183C5.47261 12.9392 6.06331 11.5672 7.03063 10.4901C6.87362 10.1025 6.35604 8.53846 7.17712 6.42C7.17712 6.42 8.44692 6.00664 11.3366 7.99649C12.5428 7.65572 13.8364 7.48483 15.1215 7.47897C16.4066 7.48483 17.7011 7.65572 18.9096 7.99649C21.7958 6.00664 23.0638 6.42 23.0638 6.42C23.8869 8.53846 23.3691 10.1025 23.2121 10.4901C24.1816 11.5672 24.7683 12.9392 24.7683 14.6183C24.7683 20.5254 21.2309 21.8261 17.8637 22.2069C18.406 22.6841 18.8893 23.6201 18.8893 25.055C18.8893 27.1126 18.8718 28.7688 18.8718 29.2756C18.8718 29.6849 19.144 30.1645 19.9105 30.0135C25.9154 27.9775 30.2427 22.2145 30.2427 15.4216C30.2427 6.92733 23.4725 0.0419312 15.1215 0.0419312Z" fill="black"/>
</svg>
