<svg width="31" height="30" viewBox="0 0 31 30" fill="none" xmlns="http://www.w3.org/2000/svg">
<path fill-rule="evenodd" clip-rule="evenodd" d="M15.9124 0C7.62808 0 0.912354 6.71573 0.912354 15C0.912354 23.2843 7.62808 30 15.9124 30C24.1966 30 30.9124 23.2843 30.9124 15C30.9124 6.71573 24.1966 0 15.9124 0ZM12.6143 7.04833C13.4677 7.0095 13.7404 7 15.913 7H15.9105C18.0839 7 18.3556 7.0095 19.2089 7.04833C20.0606 7.08733 20.6423 7.22217 21.1523 7.42C21.6789 7.62417 22.1239 7.89751 22.569 8.34251C23.014 8.78719 23.2873 9.23352 23.4923 9.7597C23.689 10.2684 23.824 10.8497 23.864 11.7014C23.9023 12.5547 23.9123 12.8274 23.9123 15.0001C23.9123 17.1728 23.9023 17.4448 23.864 18.2981C23.824 19.1495 23.689 19.731 23.4923 20.2398C23.2873 20.7658 23.014 21.2121 22.569 21.6568C22.1244 22.1018 21.6788 22.3758 21.1528 22.5802C20.6438 22.778 20.0618 22.9128 19.2101 22.9518C18.3567 22.9907 18.0849 23.0002 15.912 23.0002C13.7395 23.0002 13.467 22.9907 12.6137 22.9518C11.7622 22.9128 11.1807 22.778 10.6717 22.5802C10.1458 22.3758 9.69948 22.1018 9.25498 21.6568C8.81014 21.2121 8.5368 20.7658 8.3323 20.2396C8.13463 19.731 7.9998 19.1496 7.96063 18.298C7.92197 17.4446 7.9123 17.1728 7.9123 15.0001C7.9123 12.8274 7.9223 12.5546 7.96047 11.7012C7.9988 10.8499 8.1338 10.2684 8.33214 9.75953C8.53714 9.23352 8.81047 8.78719 9.25548 8.34251C9.70015 7.89768 10.1465 7.62434 10.6727 7.42C11.1813 7.22217 11.7627 7.08733 12.6143 7.04833Z" fill="black"/>
<path fill-rule="evenodd" clip-rule="evenodd" d="M15.1956 8.4417C15.3349 8.44148 15.4848 8.44155 15.6466 8.44162L15.9132 8.4417C18.0493 8.4417 18.3024 8.44936 19.1459 8.4877C19.9259 8.52336 20.3493 8.6537 20.6313 8.7632C21.0046 8.9082 21.2708 9.08154 21.5506 9.36154C21.8306 9.64154 22.004 9.90821 22.1493 10.2815C22.2588 10.5632 22.3893 10.9866 22.4248 11.7666C22.4631 12.6099 22.4715 12.8632 22.4715 14.9983C22.4715 17.1333 22.4631 17.3866 22.4248 18.23C22.3891 19.01 22.2588 19.4333 22.1493 19.715C22.0043 20.0883 21.8306 20.3542 21.5506 20.634C21.2706 20.914 21.0048 21.0873 20.6313 21.2323C20.3496 21.3423 19.9259 21.4723 19.1459 21.508C18.3026 21.5463 18.0493 21.5547 15.9132 21.5547C13.777 21.5547 13.5239 21.5463 12.6805 21.508C11.9005 21.472 11.4772 21.3417 11.195 21.2322C10.8217 21.0872 10.555 20.9138 10.275 20.6338C9.995 20.3538 9.82167 20.0878 9.67633 19.7143C9.56683 19.4326 9.43633 19.0093 9.40083 18.2293C9.36249 17.386 9.35483 17.1326 9.35483 14.9963C9.35483 12.8599 9.36249 12.6079 9.40083 11.7646C9.4365 10.9846 9.56683 10.5612 9.67633 10.2792C9.82133 9.90588 9.995 9.63921 10.275 9.35921C10.555 9.0792 10.8217 8.90587 11.195 8.76053C11.477 8.65053 11.9005 8.52053 12.6805 8.4847C13.4185 8.45136 13.7045 8.44136 15.1956 8.4397V8.4417ZM20.1835 9.77002C19.6535 9.77002 19.2235 10.1995 19.2235 10.7297C19.2235 11.2597 19.6535 11.6897 20.1835 11.6897C20.7135 11.6897 21.1435 11.2597 21.1435 10.7297C21.1435 10.1997 20.7135 9.76968 20.1835 9.76968V9.77002ZM11.8047 15.0001C11.8047 12.7313 13.6442 10.8918 15.9129 10.8917C18.1818 10.8917 20.0208 12.7312 20.0208 15.0001C20.0208 17.2689 18.182 19.1076 15.9131 19.1076C13.6443 19.1076 11.8047 17.2689 11.8047 15.0001Z" fill="black"/>
<path d="M15.9132 12.3334C17.3858 12.3334 18.5798 13.5273 18.5798 15.0001C18.5798 16.4728 17.3858 17.6668 15.9132 17.6668C14.4403 17.6668 13.2465 16.4728 13.2465 15.0001C13.2465 13.5273 14.4403 12.3334 15.9132 12.3334Z" fill="black"/>
</svg>
