<svg width="31" height="30" viewBox="0 0 31 30" fill="none" xmlns="http://www.w3.org/2000/svg">
<path fill-rule="evenodd" clip-rule="evenodd" d="M15.9124 0C7.62808 0 0.912354 6.71573 0.912354 15C0.912354 23.2843 7.62808 30 15.9124 30C24.1966 30 30.9124 23.2843 30.9124 15C30.9124 6.71573 24.1966 0 15.9124 0ZM8.1134 12.4236H11.5127V22.6372H8.1134V12.4236ZM11.7366 9.26419C11.7145 8.26275 10.9984 7.5 9.8355 7.5C8.67261 7.5 7.91235 8.26275 7.91235 9.26419C7.91235 10.2449 8.65014 11.0296 9.79137 11.0296H9.8131C10.9984 11.0296 11.7366 10.2449 11.7366 9.26419ZM19.8581 12.1838C22.095 12.1838 23.772 13.6439 23.772 16.7811L23.7718 22.6372H20.3726V17.173C20.3726 15.8005 19.8807 14.8639 18.6502 14.8639C17.711 14.8639 17.1516 15.4953 16.906 16.1051C16.8161 16.3236 16.794 16.6281 16.794 16.9334V22.6375H13.3943C13.3943 22.6375 13.4391 13.3823 13.3943 12.4239H16.794V13.8706C17.2452 13.1752 18.0532 12.1838 19.8581 12.1838Z" fill="black"/>
</svg>
